<?xml version="1.0" encoding="utf-8"?>
<!-- Generator: Adobe Illustrator 17.1.0, SVG Export Plug-In . SVG Version: 6.00 Build 0)  -->
<!DOCTYPE svg PUBLIC "-//W3C//DTD SVG 1.1//EN" "http://www.w3.org/Graphics/SVG/1.1/DTD/svg11.dtd">
<svg version="1.1" id="Layer_1" xmlns="http://www.w3.org/2000/svg" xmlns:xlink="http://www.w3.org/1999/xlink" x="0px" y="0px"
	 viewBox="0 0 195.6 230.3" enable-background="new 0 0 195.6 230.3" xml:space="preserve">
<path fill="#FFFFFF" d="M189.9,24.9L159.5,7.2c0.3,1.5,0.4,3,0.4,4.5l-0.3,78.7c0,1.6-0.2,3.2-0.5,4.8c0.5,1.1,0.9,2.1,1.2,3.2
	L194,40.7C197.2,35.1,195.4,28.1,189.9,24.9z"/>
<path fill="#FFFFFF" d="M141,72c0.7,1.2,1.2,2.4,1.7,3.6c1,0.7,2,1.4,2.9,2.1l0.2-66c0-6.4-5.1-11.6-11.5-11.6L99.3,0
	c1,1.1,1.8,2.4,2.6,3.7L141,72z"/>
<path fill="#FFFFFF" d="M119.7,68.2c1.1,0,2.1,0.1,3.2,0.2L89.8,10.7c-2.1-3.7-6-5.8-10-5.8c-1.9,0-3.9,0.5-5.7,1.5L43.6,23.8
	c1.4,0.5,2.8,1.1,4.1,1.9l68,39.6C117.1,66.1,118.5,67.1,119.7,68.2z"/>
<path fill="#FFFFFF" d="M97.4,73.2c0.7-0.4,1.5-0.7,2.2-1.1L40.7,37.8c-5.5-3.2-12.6-1.3-15.8,4.2L7.2,72.3c1.4-0.3,2.9-0.4,4.4-0.4
	h0.1h0l78.7,0.2C92.8,72.2,95.1,72.6,97.4,73.2z"/>
<path fill="#FFFFFF" d="M82.1,86.2l-70.4-0.2c-6.4,0-11.6,5.1-11.6,11.5L0,132.5c1.1-1,2.4-1.8,3.7-2.6L72,90.8
	c2.8-1.6,5.9-2.7,9.1-3.1C81.4,87.2,81.7,86.7,82.1,86.2z"/>
<path fill="#FFFFFF" d="M73.8,105.9l-63.1,36.2c-5.5,3.2-7.4,10.2-4.3,15.8l17.4,30.4c0.5-1.4,1.1-2.8,1.9-4.1l39.6-68
	c2.1-3.5,4.9-6.5,8.3-8.6C73.6,107,73.7,106.5,73.8,105.9z"/>
<path fill="#FFFFFF" d="M75.4,126.7l-37.5,64.5c-3.2,5.5-1.3,12.6,4.2,15.8l30.7,17.9c1.8,1.1,3.8,1.6,5.8,1.6
	c2.1,0,4.1-0.6,5.9-1.6l0.3-72.3c0-2.5,0.6-5.1,1.6-7.5C81.3,139.9,77.6,133.6,75.4,126.7z"/>
<path fill="#FFFFFF" d="M143.2,230.3c4.3,0,5.7-2.9,5.7-5.1l0.3-72.5c0-3.8-1.1-6.1-5.7-6.1l-39.1-0.1c-4.2,0-5.7,1.8-5.7,6.1
	l-0.3,72.5c0,2.2,1.6,5.1,5.7,5.1L143.2,230.3"/>
</svg>
